<?xml version="1.0" standalone="no"?>
<!DOCTYPE svg PUBLIC "-//W3C//DTD SVG 20010904//EN"
 "http://www.w3.org/TR/2001/REC-SVG-20010904/DTD/svg10.dtd">
<svg version="1.0" xmlns="http://www.w3.org/2000/svg"
 width="512.000000pt" height="512.000000pt" viewBox="0 0 512.000000 512.000000"
 preserveAspectRatio="xMidYMid meet">

<g transform="translate(0.000000,512.000000) scale(0.100000,-0.100000)"
fill="#000000" stroke="none">
<path d="M2371 5090 c-153 -41 -303 -135 -401 -253 -60 -73 -133 -215 -157
-307 -24 -89 -24 -291 1 -379 75 -275 282 -482 557 -557 89 -25 290 -25 379
-1 278 75 490 288 560 562 25 98 27 256 4 358 -34 150 -122 298 -241 406 -81
74 -233 152 -340 175 -101 22 -268 20 -362 -4z"/>
<path d="M1741 3739 c-226 -44 -440 -182 -595 -384 -83 -107 -115 -159 -180
-295 -124 -259 -206 -588 -247 -994 -15 -148 -7 -223 30 -303 79 -168 262
-280 584 -357 l27 -6 0 284 0 284 -42 14 -43 13 2 77 c2 85 32 275 63 400 17
70 20 114 20 339 l0 259 1068 2 c587 2 1126 2 1199 0 l132 -3 3 -267 c4 -249
6 -274 31 -376 23 -98 42 -210 62 -372 l6 -51 -50 -21 -51 -21 0 -281 0 -280
28 6 c180 39 369 120 463 197 62 51 110 119 141 199 26 69 25 180 -2 393 -49
385 -129 667 -261 926 -201 390 -537 629 -887 629 -72 0 -81 -2 -103 -26 -35
-38 -134 -107 -204 -142 -217 -108 -499 -113 -721 -12 -72 32 -137 74 -211
137 l-51 43 -84 -1 c-45 -1 -103 -5 -127 -10z"/>
<path d="M1465 2958 c-3 -7 -4 -382 -3 -833 l3 -820 1098 -3 1097 -2 0 835 0
835 -1095 0 c-867 0 -1097 -3 -1100 -12z m1171 -417 c35 -21 64 -75 64 -118 0
-60 -72 -133 -133 -133 -80 0 -137 59 -137 144 0 43 4 53 39 87 34 35 44 39
87 39 30 0 61 -7 80 -19z"/>
<path d="M565 1436 c-205 -65 -333 -268 -298 -472 23 -134 113 -258 225 -313
24 -11 389 -133 813 -271 424 -138 809 -264 858 -280 48 -16 87 -27 87 -26 0
2 -14 21 -31 42 -81 101 -114 211 -107 351 5 85 9 102 46 177 48 97 149 200
225 232 26 10 47 22 47 25 0 5 -1499 497 -1620 531 -74 21 -186 23 -245 4z"/>
<path d="M4245 1411 c-542 -173 -1800 -588 -1839 -608 -110 -55 -197 -179
-219 -310 -29 -178 72 -366 240 -446 64 -30 74 -32 178 -32 l110 1 940 308
c517 169 962 320 989 334 71 38 139 111 177 188 29 58 34 80 37 159 6 137 -25
222 -117 318 -126 132 -275 158 -496 88z"/>
<path d="M2065 1105 l280 -94 215 0 215 -1 285 94 285 94 -780 0 -780 0 280
-93z"/>
</g>
</svg>
