<?xml version="1.0" standalone="no"?>
<!DOCTYPE svg PUBLIC "-//W3C//DTD SVG 20010904//EN"
 "http://www.w3.org/TR/2001/REC-SVG-20010904/DTD/svg10.dtd">
<svg version="1.0" xmlns="http://www.w3.org/2000/svg"
 width="200.000000pt" height="200.000000pt" viewBox="0 0 200.000000 200.000000"
 preserveAspectRatio="xMidYMid meet">

<g transform="translate(0.000000,200.000000) scale(0.100000,-0.100000)"
fill="#000000" stroke="none">
<path d="M904 1829 c-104 -161 -180 -353 -205 -519 -12 -80 -16 -88 -60 -139
-63 -70 -113 -168 -133 -258 -9 -40 -16 -78 -16 -86 0 -29 32 -26 120 12 97
42 90 44 104 -21 4 -15 14 -31 24 -36 9 -4 67 -6 127 -2 61 3 157 3 215 -1 58
-3 111 -4 118 -1 7 2 17 24 24 49 12 51 6 51 121 2 101 -43 108 -38 85 73 -22
104 -65 192 -128 261 -44 48 -50 61 -60 123 -13 86 -44 202 -72 274 -55 140
-168 332 -201 338 -11 2 -31 -20 -63 -69z m148 -318 c51 -57 32 -153 -38 -186
-131 -62 -232 114 -118 204 43 34 117 25 156 -18z"/>
<path d="M875 698 c-52 -46 -73 -230 -38 -338 9 -29 45 -100 79 -157 l62 -105
56 95 c96 160 120 255 97 379 -24 129 -45 148 -160 148 -58 0 -74 -4 -96 -22z
m146 -34 c22 -27 17 -108 -11 -159 -13 -25 -29 -44 -34 -42 -18 6 -56 93 -56
129 0 64 15 88 54 88 18 0 39 -7 47 -16z"/>
</g>
</svg>
