<svg width="23" height="14" viewBox="0 0 23 14" fill="none" xmlns="http://www.w3.org/2000/svg">
<g clip-path="url(#clip0)">
<path d="M8.58895 2.51518C8.58895 1.61581 7.85987 0.886719 6.96049 0.886719C6.06112 0.886719 5.33203 1.61581 5.33203 2.51518V11.3455C5.33203 12.2449 6.06112 12.974 6.96049 12.974C7.85987 12.974 8.58895 12.2449 8.58895 11.3455V2.51518Z" fill="black"/>
<path d="M8.58895 2.51518C8.58895 1.61581 7.85987 0.886719 6.96049 0.886719C6.06112 0.886719 5.33203 1.61581 5.33203 2.51518V11.3455C5.33203 12.2449 6.06112 12.974 6.96049 12.974C7.85987 12.974 8.58895 12.2449 8.58895 11.3455V2.51518Z" fill="white"/>
<path fill-rule="evenodd" clip-rule="evenodd" d="M5.33301 3.57031H8.58993V7.93526L5.33301 5.11102V3.57031Z" fill="url(#paint0_linear)"/>
<path d="M11.2075 3.57723C12.1069 3.57723 12.8359 2.84815 12.8359 1.94877C12.8359 1.0494 12.1069 0.320313 11.2075 0.320313L2.37712 0.320313C1.47775 0.320313 0.748659 1.0494 0.748659 1.94877C0.748659 2.84815 1.47775 3.57723 2.37712 3.57723L11.2075 3.57723Z" fill="white"/>
<path d="M13.1934 2.06596C13.1934 1.16659 12.4644 0.4375 11.565 0.4375C10.6656 0.4375 9.93652 1.16659 9.93652 2.06596V11.3441C9.93652 12.2435 10.6656 12.9726 11.565 12.9726C12.4644 12.9726 13.1934 12.2435 13.1934 11.3441V2.06596Z" fill="black"/>
<path d="M13.1934 2.06596C13.1934 1.16659 12.4644 0.4375 11.565 0.4375C10.6656 0.4375 9.93652 1.16659 9.93652 2.06596V11.3441C9.93652 12.2435 10.6656 12.9726 11.565 12.9726C12.4644 12.9726 13.1934 12.2435 13.1934 11.3441V2.06596Z" fill="white"/>
<path d="M22.2911 2.06596C22.2911 1.16659 21.562 0.4375 20.6626 0.4375C19.7633 0.4375 19.0342 1.16659 19.0342 2.06596V11.3441C19.0342 12.2435 19.7633 12.9726 20.6626 12.9726C21.562 12.9726 22.2911 12.2435 22.2911 11.3441V2.06596Z" fill="black"/>
<path d="M22.2911 2.06596C22.2911 1.16659 21.562 0.4375 20.6626 0.4375C19.7633 0.4375 19.0342 1.16659 19.0342 2.06596V11.3441C19.0342 12.2435 19.7633 12.9726 20.6626 12.9726C21.562 12.9726 22.2911 12.2435 22.2911 11.3441V2.06596Z" fill="white"/>
<path fill-rule="evenodd" clip-rule="evenodd" d="M9.93652 2.22648H13.1935V11.5155L9.93652 8.82989V2.22648ZM19.0332 1.89062H22.2901V8.82989L19.0332 6.00565V1.89062Z" fill="url(#paint1_linear)"/>
<path d="M15.2795 7.84616L15.1934 7.77088C14.8741 7.49179 14.679 7.10217 14.6511 6.6877C14.6232 6.27324 14.7647 5.8679 15.0445 5.56084L19.3782 0.805166C19.658 0.498112 20.0531 0.314499 20.4768 0.294719C20.9004 0.274941 21.3178 0.420616 21.6371 0.699698L21.7232 0.774977C22.0425 1.05406 22.2375 1.44369 22.2655 1.85815C22.2934 2.27261 22.1519 2.67795 21.8721 2.98501L17.5384 7.74069C17.2586 8.04774 16.8634 8.23136 16.4398 8.25113C16.0162 8.27091 15.5988 8.12524 15.2795 7.84616V7.84616Z" fill="url(#paint2_linear)"/>
<path d="M17.1472 8.08476L17.2333 8.00949C17.5525 7.73041 17.7474 7.34086 17.7751 6.92655C17.8029 6.51224 17.6612 6.1071 17.3812 5.80025L12.8239 0.805279C12.6852 0.653269 12.5168 0.529994 12.3281 0.442499C12.1394 0.355003 11.9343 0.305003 11.7244 0.295355C11.5146 0.285706 11.304 0.3166 11.1049 0.38627C10.9058 0.45594 10.722 0.56302 10.564 0.70139L10.4788 0.775859C10.1597 1.05494 9.96477 1.44448 9.93704 1.85879C9.90931 2.2731 10.051 2.67824 10.331 2.98509L14.889 7.98096C15.1691 8.28743 15.5643 8.47052 15.9877 8.48999C16.4112 8.50946 16.8282 8.3637 17.1472 8.08476Z" fill="url(#paint3_linear)"/>
</g>
<defs>
<linearGradient id="paint0_linear" x1="5.55774" y1="4.75321" x2="8.70712" y2="6.12537" gradientUnits="userSpaceOnUse">
<stop stop-color="#CACACA"/>
<stop offset="1" stop-color="#CDCDCD" stop-opacity="0"/>
</linearGradient>
<linearGradient id="paint1_linear" x1="10.7889" y1="4.49898" x2="19.8902" y2="11.32" gradientUnits="userSpaceOnUse">
<stop stop-color="#CACACA"/>
<stop offset="1" stop-color="#CDCDCD" stop-opacity="0"/>
</linearGradient>
<linearGradient id="paint2_linear" x1="21.3953" y1="1.88574" x2="16.5248" y2="2.70088" gradientUnits="userSpaceOnUse">
<stop stop-color="white"/>
<stop offset="1" stop-color="#F3F3F3"/>
</linearGradient>
<linearGradient id="paint3_linear" x1="10.8802" y1="1.60746" x2="17.8636" y2="5.59676" gradientUnits="userSpaceOnUse">
<stop stop-color="#F3F3F3"/>
<stop offset="1" stop-color="white"/>
</linearGradient>
<clipPath id="clip0">
<rect width="23" height="14" fill="white"/>
</clipPath>
</defs>
</svg>
